<svg width="2506" height="745" viewBox="0 0 2506 745" fill="none" xmlns="http://www.w3.org/2000/svg">
<g clip-path="url(#clip0_162_45)">
<path d="M208.988 54.7081C208.988 54.7081 34.5129 355.448 102.504 409.635L576.484 435.64C576.501 357.332 733.793 562.863 548.686 50.0427C532.426 4.99627 519.876 -5.29121 491.911 42.9741L450.046 106.407L307.591 106.437C307.591 106.437 296.495 85.2248 266.959 41.2001C237.422 -2.82463 231.486 12.1057 208.988 54.7081Z" fill="white" stroke="black" style="fill:white;fill-opacity:1;stroke:black;stroke-opacity:1;" stroke-width="20"/>
<path d="M241.142 64.2928C242.281 62.4507 244.936 62.3836 246.164 64.166L269.156 97.541C270.507 99.5029 269.141 102.183 266.758 102.243L222.436 103.363C220.054 103.423 218.558 100.815 219.811 98.7872L241.142 64.2928Z" fill="black" style="fill:black;fill-opacity:1;"/>
<ellipse cx="273.516" cy="220.404" rx="17.4697" ry="18.197" transform="rotate(-1.11053 273.516 220.404)" fill="black" style="fill:black;fill-opacity:1;"/>
<ellipse cx="441.184" cy="217.154" rx="17.4697" ry="18.197" transform="rotate(-1.11053 441.184 217.154)" fill="black" style="fill:black;fill-opacity:1;"/>
<path d="M284.117 280.502C287.057 326.454 360.85 321.526 357.923 275.78" stroke="black" style="stroke:black;stroke-opacity:1;" stroke-width="18"/>
<path d="M358.273 280.189C361.214 326.142 434.117 321.27 431.19 275.524" stroke="black" style="stroke:black;stroke-opacity:1;" stroke-width="18"/>
<ellipse cx="458.746" cy="250.91" rx="30.4489" ry="12.1796" fill="#FF8BBC" fill-opacity="0.2" style="fill:#FF8BBC;fill:color(display-p3 1.0000 0.5442 0.7356);fill-opacity:0.2;"/>
<ellipse cx="255.754" cy="250.91" rx="30.4489" ry="12.1796" fill="#FF8BBC" fill-opacity="0.2" style="fill:#FF8BBC;fill:color(display-p3 1.0000 0.5442 0.7356);fill-opacity:0.2;"/>
<path d="M514.06 62.3096C515.234 60.4899 517.89 60.4743 519.083 62.2802L541.423 96.0945C542.737 98.0822 541.318 100.736 538.935 100.75L494.6 101.01C492.217 101.024 490.771 98.3871 492.064 96.3841L514.06 62.3096Z" fill="black" style="fill:black;fill-opacity:1;"/>
<path d="M648.411 405.182H79.6734C73.8945 405.182 69.3185 410.066 69.6946 415.832L89.7045 722.651C90.0475 727.91 94.4131 732 99.6833 732H639.835C645.249 732 649.68 727.691 649.831 722.28L658.407 415.461C658.564 409.831 654.043 405.182 648.411 405.182Z" fill="#ED6526" stroke="black" style="fill:#ED6526;fill:color(display-p3 0.9294 0.3961 0.1490);fill-opacity:1;stroke:black;stroke-opacity:1;" stroke-width="20"/>
<path d="M240.53 521.902L99 730M480.061 521.902L646.516 727.94" stroke="black" style="stroke:black;stroke-opacity:1;" stroke-width="20"/>
<path d="M209.685 394.017C209.685 400.303 206.226 406.627 199.372 411.653C192.522 416.676 182.697 420.011 171.511 420.011C160.326 420.011 150.5 416.676 143.651 411.653C136.797 406.627 133.338 400.303 133.338 394.017C133.338 387.732 136.797 381.408 143.651 376.382C150.5 371.359 160.326 368.023 171.511 368.023C182.697 368.023 192.522 371.359 199.372 376.382C206.226 381.408 209.685 387.732 209.685 394.017Z" fill="white" stroke="black" style="fill:white;fill-opacity:1;stroke:black;stroke-opacity:1;" stroke-width="15"/>
<path d="M589.812 394.017C589.812 399.71 586.684 405.624 580.112 410.443C573.545 415.259 564.038 418.511 553.138 418.511C542.238 418.511 532.731 415.259 526.165 410.443C519.593 405.624 516.465 399.71 516.465 394.017C516.465 388.324 519.593 382.411 526.165 377.591C532.731 372.776 542.238 369.523 553.138 369.523C564.038 369.523 573.545 372.776 580.112 377.591C586.684 382.411 589.812 388.324 589.812 394.017Z" fill="white" stroke="black" style="fill:white;fill-opacity:1;stroke:black;stroke-opacity:1;" stroke-width="18"/>
<path d="M70 410L357.839 598.477C361.181 600.666 365.506 600.655 368.837 598.45L653.5 410" stroke="black" style="stroke:black;stroke-opacity:1;" stroke-width="20"/>
<path d="M853.5 569V321H913.5L918.5 352.5H920.5C931.167 342.5 942.833 333.833 955.5 326.5C968.5 318.833 983.333 315 1000 315C1027 315 1046.5 324 1058.5 342C1070.83 359.667 1077 384 1077 415V569H1003.5V424.5C1003.5 406.5 1001 394.167 996 387.5C991.333 380.833 983.667 377.5 973 377.5C963.667 377.5 955.667 379.667 949 384C942.333 388 935 393.833 927 401.5V569H853.5ZM1246.13 575C1225.13 575 1205.3 570 1186.63 560C1168.3 549.667 1153.47 534.833 1142.13 515.5C1130.8 495.833 1125.13 472.333 1125.13 445C1125.13 417.333 1130.8 393.833 1142.13 374.5C1153.47 355.167 1168.3 340.5 1186.63 330.5C1205.3 320.167 1225.13 315 1246.13 315C1267.13 315 1286.8 320.167 1305.13 330.5C1323.47 340.5 1338.3 355.167 1349.63 374.5C1360.97 393.833 1366.63 417.333 1366.63 445C1366.63 472.333 1360.97 495.833 1349.63 515.5C1338.3 534.833 1323.47 549.667 1305.13 560C1286.8 570 1267.13 575 1246.13 575ZM1246.13 515.5C1261.13 515.5 1272.47 509.167 1280.13 496.5C1287.8 483.5 1291.63 466.333 1291.63 445C1291.63 423.333 1287.8 406.167 1280.13 393.5C1272.47 380.833 1261.13 374.5 1246.13 374.5C1230.8 374.5 1219.3 380.833 1211.63 393.5C1204.3 406.167 1200.63 423.333 1200.63 445C1200.63 466.333 1204.3 483.5 1211.63 496.5C1219.3 509.167 1230.8 515.5 1246.13 515.5ZM1499.29 575C1468.63 575 1446.63 566.167 1433.29 548.5C1420.29 530.833 1413.79 507.667 1413.79 479V378.5H1379.79V324L1417.79 321L1426.29 255H1487.29V321H1546.79V378.5H1487.29V478C1487.29 492 1490.13 502.167 1495.79 508.5C1501.79 514.5 1509.63 517.5 1519.29 517.5C1523.29 517.5 1527.29 517 1531.29 516C1535.63 515 1539.46 513.833 1542.79 512.5L1554.29 566C1547.96 568 1540.13 570 1530.79 572C1521.79 574 1511.29 575 1499.29 575ZM1692.91 575C1671.91 575 1652.08 570 1633.41 560C1615.08 549.667 1600.24 534.833 1588.91 515.5C1577.58 495.833 1571.91 472.333 1571.91 445C1571.91 417.333 1577.58 393.833 1588.91 374.5C1600.24 355.167 1615.08 340.5 1633.41 330.5C1652.08 320.167 1671.91 315 1692.91 315C1713.91 315 1733.58 320.167 1751.91 330.5C1770.24 340.5 1785.08 355.167 1796.41 374.5C1807.74 393.833 1813.41 417.333 1813.41 445C1813.41 472.333 1807.74 495.833 1796.41 515.5C1785.08 534.833 1770.24 549.667 1751.91 560C1733.58 570 1713.91 575 1692.91 575ZM1692.91 515.5C1707.91 515.5 1719.24 509.167 1726.91 496.5C1734.58 483.5 1738.41 466.333 1738.41 445C1738.41 423.333 1734.58 406.167 1726.91 393.5C1719.24 380.833 1707.91 374.5 1692.91 374.5C1677.58 374.5 1666.08 380.833 1658.41 393.5C1651.08 406.167 1647.41 423.333 1647.41 445C1647.41 466.333 1651.08 483.5 1658.41 496.5C1666.08 509.167 1677.58 515.5 1692.91 515.5ZM1971.75 575C1948.75 575 1927.92 570 1909.25 560C1890.92 549.667 1876.25 534.833 1865.25 515.5C1854.59 495.833 1849.25 472.333 1849.25 445C1849.25 417.333 1855.25 393.833 1867.25 374.5C1879.25 355.167 1895.09 340.5 1914.75 330.5C1934.42 320.167 1955.59 315 1978.25 315C1993.59 315 2007.09 317.5 2018.75 322.5C2030.75 327.5 2041.42 333.833 2050.75 341.5L2016.25 389C2004.59 379.333 1993.42 374.5 1982.75 374.5C1965.09 374.5 1950.92 380.833 1940.25 393.5C1929.92 406.167 1924.75 423.333 1924.75 445C1924.75 466.333 1929.92 483.5 1940.25 496.5C1950.92 509.167 1964.25 515.5 1980.25 515.5C1988.25 515.5 1996.09 513.833 2003.75 510.5C2011.42 506.833 2018.42 502.5 2024.75 497.5L2053.75 545.5C2041.42 556.167 2028.09 563.833 2013.75 568.5C1999.42 572.833 1985.42 575 1971.75 575ZM2154.77 575C2132.1 575 2114.1 567.833 2100.77 553.5C2087.44 538.833 2080.77 521 2080.77 500C2080.77 474 2091.77 453.667 2113.77 439C2135.77 424.333 2171.27 414.5 2220.27 409.5C2219.6 398.5 2216.27 389.833 2210.27 383.5C2204.6 376.833 2194.94 373.5 2181.27 373.5C2170.94 373.5 2160.44 375.5 2149.77 379.5C2139.1 383.5 2127.77 389 2115.77 396L2089.27 347.5C2104.94 337.833 2121.6 330 2139.27 324C2157.27 318 2175.94 315 2195.27 315C2226.94 315 2251.27 324.167 2268.27 342.5C2285.27 360.833 2293.77 389 2293.77 427V569H2233.77L2228.77 543.5H2226.77C2216.44 552.833 2205.27 560.5 2193.27 566.5C2181.6 572.167 2168.77 575 2154.77 575ZM2179.77 518C2188.1 518 2195.27 516.167 2201.27 512.5C2207.6 508.5 2213.94 503.333 2220.27 497V453.5C2194.27 456.833 2176.27 462.167 2166.27 469.5C2156.27 476.5 2151.27 484.833 2151.27 494.5C2151.27 502.5 2153.77 508.5 2158.77 512.5C2164.1 516.167 2171.1 518 2179.77 518ZM2442.65 575C2411.99 575 2389.99 566.167 2376.65 548.5C2363.65 530.833 2357.15 507.667 2357.15 479V378.5H2323.15V324L2361.15 321L2369.65 255H2430.65V321H2490.15V378.5H2430.65V478C2430.65 492 2433.49 502.167 2439.15 508.5C2445.15 514.5 2452.99 517.5 2462.65 517.5C2466.65 517.5 2470.65 517 2474.65 516C2478.99 515 2482.82 513.833 2486.15 512.5L2497.65 566C2491.32 568 2483.49 570 2474.15 572C2465.15 574 2454.65 575 2442.65 575Z" fill="white" style="fill:white;fill-opacity:1;"/>
</g>
<defs>
<clipPath id="clip0_162_45">
<rect width="2506" height="745" fill="white" style="fill:white;fill-opacity:1;"/>
</clipPath>
</defs>
</svg>
