<svg width="745" height="745" viewBox="0 0 745 745" fill="none" xmlns="http://www.w3.org/2000/svg">
<path d="M208.988 54.7081C208.988 54.7081 34.5129 355.448 102.504 409.635L576.484 435.64C576.501 357.332 733.793 562.863 548.686 50.0427C532.426 4.99627 519.876 -5.29121 491.911 42.9741L450.046 106.407L307.591 106.437C307.591 106.437 296.495 85.2248 266.959 41.2001C237.422 -2.82463 231.486 12.1057 208.988 54.7081Z" fill="white" stroke="black" style="fill:white;fill-opacity:1;stroke:black;stroke-opacity:1;" stroke-width="20"/>
<path d="M241.142 64.2928C242.281 62.4507 244.936 62.3836 246.164 64.166L269.156 97.541C270.507 99.5029 269.141 102.183 266.758 102.243L222.436 103.363C220.054 103.423 218.558 100.815 219.811 98.7872L241.142 64.2928Z" fill="black" style="fill:black;fill-opacity:1;"/>
<ellipse cx="273.516" cy="220.404" rx="17.4697" ry="18.197" transform="rotate(-1.11053 273.516 220.404)" fill="black" style="fill:black;fill-opacity:1;"/>
<ellipse cx="441.184" cy="217.154" rx="17.4697" ry="18.197" transform="rotate(-1.11053 441.184 217.154)" fill="black" style="fill:black;fill-opacity:1;"/>
<path d="M284.117 280.502C287.057 326.454 360.85 321.526 357.923 275.78" stroke="black" style="stroke:black;stroke-opacity:1;" stroke-width="18"/>
<path d="M358.273 280.189C361.214 326.142 434.117 321.27 431.19 275.524" stroke="black" style="stroke:black;stroke-opacity:1;" stroke-width="18"/>
<ellipse cx="458.746" cy="250.91" rx="30.4489" ry="12.1796" fill="#FF8BBC" fill-opacity="0.2" style="fill:#FF8BBC;fill:color(display-p3 1.0000 0.5442 0.7356);fill-opacity:0.2;"/>
<ellipse cx="255.754" cy="250.91" rx="30.4489" ry="12.1796" fill="#FF8BBC" fill-opacity="0.2" style="fill:#FF8BBC;fill:color(display-p3 1.0000 0.5442 0.7356);fill-opacity:0.2;"/>
<path d="M514.06 62.3096C515.234 60.4899 517.89 60.4743 519.083 62.2802L541.423 96.0945C542.737 98.0822 541.318 100.736 538.935 100.75L494.6 101.01C492.217 101.024 490.771 98.3871 492.064 96.3841L514.06 62.3096Z" fill="black" style="fill:black;fill-opacity:1;"/>
<path d="M648.411 405.182H79.6734C73.8945 405.182 69.3185 410.066 69.6946 415.832L89.7045 722.651C90.0475 727.91 94.4131 732 99.6833 732H639.835C645.249 732 649.68 727.691 649.831 722.28L658.407 415.461C658.564 409.831 654.043 405.182 648.411 405.182Z" fill="#ED6526" stroke="black" style="fill:#ED6526;fill:color(display-p3 0.9294 0.3961 0.1490);fill-opacity:1;stroke:black;stroke-opacity:1;" stroke-width="20"/>
<path d="M240.53 521.902L99 730M480.061 521.902L646.516 727.94" stroke="black" style="stroke:black;stroke-opacity:1;" stroke-width="20"/>
<path d="M209.685 394.017C209.685 400.303 206.226 406.627 199.372 411.653C192.522 416.676 182.697 420.011 171.511 420.011C160.326 420.011 150.5 416.676 143.651 411.653C136.797 406.627 133.338 400.303 133.338 394.017C133.338 387.732 136.797 381.408 143.651 376.382C150.5 371.359 160.326 368.023 171.511 368.023C182.697 368.023 192.522 371.359 199.372 376.382C206.226 381.408 209.685 387.732 209.685 394.017Z" fill="white" stroke="black" style="fill:white;fill-opacity:1;stroke:black;stroke-opacity:1;" stroke-width="15"/>
<path d="M589.812 394.017C589.812 399.71 586.684 405.624 580.112 410.443C573.545 415.259 564.038 418.511 553.138 418.511C542.238 418.511 532.731 415.259 526.165 410.443C519.593 405.624 516.465 399.71 516.465 394.017C516.465 388.324 519.593 382.411 526.165 377.591C532.731 372.776 542.238 369.523 553.138 369.523C564.038 369.523 573.545 372.776 580.112 377.591C586.684 382.411 589.812 388.324 589.812 394.017Z" fill="white" stroke="black" style="fill:white;fill-opacity:1;stroke:black;stroke-opacity:1;" stroke-width="18"/>
<path d="M70 410L357.839 598.477C361.181 600.666 365.506 600.655 368.837 598.45L653.5 410" stroke="black" style="stroke:black;stroke-opacity:1;" stroke-width="20"/>
</svg>
