<svg width="2506" height="745" viewBox="0 0 2506 745" fill="none" xmlns="http://www.w3.org/2000/svg">
<path d="M208.988 54.7081C208.988 54.7081 34.5129 355.448 102.504 409.635L576.484 435.64C576.501 357.332 733.793 562.863 548.686 50.0427C532.426 4.99627 519.876 -5.29121 491.911 42.9741L450.046 106.407L307.591 106.437C307.591 106.437 296.495 85.2248 266.959 41.2001C237.422 -2.82463 231.486 12.1057 208.988 54.7081Z" fill="white" stroke="black" style="fill:white;fill-opacity:1;stroke:black;stroke-opacity:1;" stroke-width="20"/>
<path d="M241.142 64.2928C242.281 62.4507 244.936 62.3836 246.164 64.166L269.156 97.541C270.507 99.5029 269.141 102.183 266.758 102.243L222.436 103.363C220.054 103.423 218.558 100.815 219.811 98.7872L241.142 64.2928Z" fill="black" style="fill:black;fill-opacity:1;"/>
<ellipse cx="273.516" cy="220.404" rx="17.4697" ry="18.197" transform="rotate(-1.11053 273.516 220.404)" fill="black" style="fill:black;fill-opacity:1;"/>
<ellipse cx="441.184" cy="217.154" rx="17.4697" ry="18.197" transform="rotate(-1.11053 441.184 217.154)" fill="black" style="fill:black;fill-opacity:1;"/>
<path d="M284.117 280.502C287.057 326.454 360.85 321.526 357.923 275.78" stroke="black" style="stroke:black;stroke-opacity:1;" stroke-width="18"/>
<path d="M358.273 280.189C361.214 326.142 434.117 321.27 431.19 275.524" stroke="black" style="stroke:black;stroke-opacity:1;" stroke-width="18"/>
<ellipse cx="458.746" cy="250.91" rx="30.4489" ry="12.1796" fill="#FF8BBC" fill-opacity="0.2" style="fill:#FF8BBC;fill:color(display-p3 1.0000 0.5442 0.7356);fill-opacity:0.2;"/>
<ellipse cx="255.754" cy="250.91" rx="30.4489" ry="12.1796" fill="#FF8BBC" fill-opacity="0.2" style="fill:#FF8BBC;fill:color(display-p3 1.0000 0.5442 0.7356);fill-opacity:0.2;"/>
<path d="M514.06 62.3096C515.234 60.4899 517.89 60.4743 519.083 62.2802L541.423 96.0945C542.737 98.0822 541.318 100.736 538.935 100.75L494.6 101.01C492.217 101.024 490.771 98.3871 492.064 96.3841L514.06 62.3096Z" fill="black" style="fill:black;fill-opacity:1;"/>
<path d="M648.411 405.182H79.6734C73.8945 405.182 69.3185 410.066 69.6946 415.832L89.7045 722.651C90.0475 727.91 94.4131 732 99.6833 732H639.835C645.249 732 649.68 727.691 649.831 722.28L658.407 415.461C658.564 409.831 654.043 405.182 648.411 405.182Z" fill="#ED6526" stroke="black" style="fill:#ED6526;fill:color(display-p3 0.9294 0.3961 0.1490);fill-opacity:1;stroke:black;stroke-opacity:1;" stroke-width="20"/>
<path d="M240.53 521.902L99 730M480.061 521.902L646.516 727.94" stroke="black" style="stroke:black;stroke-opacity:1;" stroke-width="20"/>
<path d="M209.685 394.017C209.685 400.303 206.226 406.627 199.372 411.653C192.522 416.676 182.697 420.011 171.511 420.011C160.326 420.011 150.5 416.676 143.651 411.653C136.797 406.627 133.338 400.303 133.338 394.017C133.338 387.732 136.797 381.408 143.651 376.382C150.5 371.359 160.326 368.023 171.511 368.023C182.697 368.023 192.522 371.359 199.372 376.382C206.226 381.408 209.685 387.732 209.685 394.017Z" fill="white" stroke="black" style="fill:white;fill-opacity:1;stroke:black;stroke-opacity:1;" stroke-width="15"/>
<path d="M589.812 394.017C589.812 399.71 586.684 405.624 580.112 410.443C573.545 415.259 564.038 418.511 553.138 418.511C542.238 418.511 532.731 415.259 526.165 410.443C519.593 405.624 516.465 399.71 516.465 394.017C516.465 388.324 519.593 382.411 526.165 377.591C532.731 372.776 542.238 369.523 553.138 369.523C564.038 369.523 573.545 372.776 580.112 377.591C586.684 382.411 589.812 388.324 589.812 394.017Z" fill="white" stroke="black" style="fill:white;fill-opacity:1;stroke:black;stroke-opacity:1;" stroke-width="18"/>
<path d="M70 410L357.839 598.477C361.181 600.666 365.506 600.655 368.837 598.45L653.5 410" stroke="black" style="stroke:black;stroke-opacity:1;" stroke-width="20"/>
<path d="M852.5 569V321H912.5L917.5 352.5H919.5C930.167 342.5 941.833 333.833 954.5 326.5C967.5 318.833 982.333 315 999 315C1026 315 1045.5 324 1057.5 342C1069.83 359.667 1076 384 1076 415V569H1002.5V424.5C1002.5 406.5 1000 394.167 995 387.5C990.333 380.833 982.667 377.5 972 377.5C962.667 377.5 954.667 379.667 948 384C941.333 388 934 393.833 926 401.5V569H852.5ZM1245.13 575C1224.13 575 1204.3 570 1185.63 560C1167.3 549.667 1152.47 534.833 1141.13 515.5C1129.8 495.833 1124.13 472.333 1124.13 445C1124.13 417.333 1129.8 393.833 1141.13 374.5C1152.47 355.167 1167.3 340.5 1185.63 330.5C1204.3 320.167 1224.13 315 1245.13 315C1266.13 315 1285.8 320.167 1304.13 330.5C1322.47 340.5 1337.3 355.167 1348.63 374.5C1359.97 393.833 1365.63 417.333 1365.63 445C1365.63 472.333 1359.97 495.833 1348.63 515.5C1337.3 534.833 1322.47 549.667 1304.13 560C1285.8 570 1266.13 575 1245.13 575ZM1245.13 515.5C1260.13 515.5 1271.47 509.167 1279.13 496.5C1286.8 483.5 1290.63 466.333 1290.63 445C1290.63 423.333 1286.8 406.167 1279.13 393.5C1271.47 380.833 1260.13 374.5 1245.13 374.5C1229.8 374.5 1218.3 380.833 1210.63 393.5C1203.3 406.167 1199.63 423.333 1199.63 445C1199.63 466.333 1203.3 483.5 1210.63 496.5C1218.3 509.167 1229.8 515.5 1245.13 515.5ZM1498.29 575C1467.63 575 1445.63 566.167 1432.29 548.5C1419.29 530.833 1412.79 507.667 1412.79 479V378.5H1378.79V324L1416.79 321L1425.29 255H1486.29V321H1545.79V378.5H1486.29V478C1486.29 492 1489.13 502.167 1494.79 508.5C1500.79 514.5 1508.63 517.5 1518.29 517.5C1522.29 517.5 1526.29 517 1530.29 516C1534.63 515 1538.46 513.833 1541.79 512.5L1553.29 566C1546.96 568 1539.13 570 1529.79 572C1520.79 574 1510.29 575 1498.29 575ZM1691.91 575C1670.91 575 1651.08 570 1632.41 560C1614.08 549.667 1599.24 534.833 1587.91 515.5C1576.58 495.833 1570.91 472.333 1570.91 445C1570.91 417.333 1576.58 393.833 1587.91 374.5C1599.24 355.167 1614.08 340.5 1632.41 330.5C1651.08 320.167 1670.91 315 1691.91 315C1712.91 315 1732.58 320.167 1750.91 330.5C1769.24 340.5 1784.08 355.167 1795.41 374.5C1806.74 393.833 1812.41 417.333 1812.41 445C1812.41 472.333 1806.74 495.833 1795.41 515.5C1784.08 534.833 1769.24 549.667 1750.91 560C1732.58 570 1712.91 575 1691.91 575ZM1691.91 515.5C1706.91 515.5 1718.24 509.167 1725.91 496.5C1733.58 483.5 1737.41 466.333 1737.41 445C1737.41 423.333 1733.58 406.167 1725.91 393.5C1718.24 380.833 1706.91 374.5 1691.91 374.5C1676.58 374.5 1665.08 380.833 1657.41 393.5C1650.08 406.167 1646.41 423.333 1646.41 445C1646.41 466.333 1650.08 483.5 1657.41 496.5C1665.08 509.167 1676.58 515.5 1691.91 515.5ZM1970.75 575C1947.75 575 1926.92 570 1908.25 560C1889.92 549.667 1875.25 534.833 1864.25 515.5C1853.59 495.833 1848.25 472.333 1848.25 445C1848.25 417.333 1854.25 393.833 1866.25 374.5C1878.25 355.167 1894.09 340.5 1913.75 330.5C1933.42 320.167 1954.59 315 1977.25 315C1992.59 315 2006.09 317.5 2017.75 322.5C2029.75 327.5 2040.42 333.833 2049.75 341.5L2015.25 389C2003.59 379.333 1992.42 374.5 1981.75 374.5C1964.09 374.5 1949.92 380.833 1939.25 393.5C1928.92 406.167 1923.75 423.333 1923.75 445C1923.75 466.333 1928.92 483.5 1939.25 496.5C1949.92 509.167 1963.25 515.5 1979.25 515.5C1987.25 515.5 1995.09 513.833 2002.75 510.5C2010.42 506.833 2017.42 502.5 2023.75 497.5L2052.75 545.5C2040.42 556.167 2027.09 563.833 2012.75 568.5C1998.42 572.833 1984.42 575 1970.75 575ZM2153.77 575C2131.1 575 2113.1 567.833 2099.77 553.5C2086.44 538.833 2079.77 521 2079.77 500C2079.77 474 2090.77 453.667 2112.77 439C2134.77 424.333 2170.27 414.5 2219.27 409.5C2218.6 398.5 2215.27 389.833 2209.27 383.5C2203.6 376.833 2193.94 373.5 2180.27 373.5C2169.94 373.5 2159.44 375.5 2148.77 379.5C2138.1 383.5 2126.77 389 2114.77 396L2088.27 347.5C2103.94 337.833 2120.6 330 2138.27 324C2156.27 318 2174.94 315 2194.27 315C2225.94 315 2250.27 324.167 2267.27 342.5C2284.27 360.833 2292.77 389 2292.77 427V569H2232.77L2227.77 543.5H2225.77C2215.44 552.833 2204.27 560.5 2192.27 566.5C2180.6 572.167 2167.77 575 2153.77 575ZM2178.77 518C2187.1 518 2194.27 516.167 2200.27 512.5C2206.6 508.5 2212.94 503.333 2219.27 497V453.5C2193.27 456.833 2175.27 462.167 2165.27 469.5C2155.27 476.5 2150.27 484.833 2150.27 494.5C2150.27 502.5 2152.77 508.5 2157.77 512.5C2163.1 516.167 2170.1 518 2178.77 518ZM2441.65 575C2410.99 575 2388.99 566.167 2375.65 548.5C2362.65 530.833 2356.15 507.667 2356.15 479V378.5H2322.15V324L2360.15 321L2368.65 255H2429.65V321H2489.15V378.5H2429.65V478C2429.65 492 2432.49 502.167 2438.15 508.5C2444.15 514.5 2451.99 517.5 2461.65 517.5C2465.65 517.5 2469.65 517 2473.65 516C2477.99 515 2481.82 513.833 2485.15 512.5L2496.65 566C2490.32 568 2482.49 570 2473.15 572C2464.15 574 2453.65 575 2441.65 575Z" fill="black" style="fill:black;fill-opacity:1;"/>
</svg>
